HIERARCHY
ROOT Pelvis
{

	OFFSET     0.000000     0.000000     0.000000
	CHANNELS 6 Xposition Yposition Zposition Zrotation Xrotation Yrotation
	JOINT LowerBack
	{

		OFFSET    -0.000691     0.176488     0.017766
		CHANNELS 3 Zrotation Xrotation Yrotation
		JOINT Chest
		{

			OFFSET    -0.002754     0.128976    -0.000512
			CHANNELS 3 Zrotation Xrotation Yrotation
			JOINT back3
			{

				OFFSET     0.002471     0.201657    -0.000850
				CHANNELS 3 Zrotation Xrotation Yrotation
				JOINT Neck
				{

					OFFSET     0.001840     0.072570     0.000595
					CHANNELS 3 Zrotation Xrotation Yrotation
					JOINT Head
					{

						OFFSET     0.003323     0.152818     0.030907
						CHANNELS 3 Zrotation Xrotation Yrotation
						JOINT joint7
						{

							OFFSET     0.000612     0.183936     0.002625
							CHANNELS 3 Zrotation Xrotation Yrotation
							End Site
							{
								OFFSET     0.000000     0.000000     0.018310
							}
						}

					}

				}

				JOINT LeftCollar
				{

					OFFSET     0.053456     0.093486     0.002205
					CHANNELS 3 Zrotation Xrotation Yrotation
					JOINT LeftShoulder
					{

						OFFSET     0.112884    -0.020868     0.002319
						CHANNELS 3 Zrotation Xrotation Yrotation
						JOINT LeftElbow
						{

							OFFSET     0.297302     0.003523    -0.020737
							CHANNELS 3 Zrotation Xrotation Yrotation
							JOINT LeftWrist
							{

								OFFSET     0.290007     0.004431    -0.007313
								CHANNELS 3 Zrotation Xrotation Yrotation
								JOINT lf_hand
								{

									OFFSET     0.117001    -0.002589    -0.008771
									CHANNELS 3 Zrotation Xrotation Yrotation
									End Site
									{
										OFFSET     0.000000    -0.009821     0.000000
									}
								}

							}

						}

					}

				}

				JOINT RightCollar
				{

					OFFSET    -0.048666     0.096092     0.000301
					CHANNELS 3 Zrotation Xrotation Yrotation
					JOINT RightShoulder
					{

						OFFSET    -0.115072    -0.022479    -0.001894
						CHANNELS 3 Zrotation Xrotation Yrotation
						JOINT RightElbow
						{

							OFFSET    -0.297072     0.004954    -0.020752
							CHANNELS 3 Zrotation Xrotation Yrotation
							JOINT RightWrist
							{

								OFFSET    -0.292425    -0.005826    -0.023258
								CHANNELS 3 Zrotation Xrotation Yrotation
								JOINT rt_hand
								{

									OFFSET    -0.118185    -0.001061    -0.015047
									CHANNELS 3 Zrotation Xrotation Yrotation
									End Site
									{
										OFFSET     0.000000    -0.009987     0.000000
									}
								}

							}

						}

					}

				}

			}

			JOINT joint13
			{

				OFFSET     0.125914     0.117470     0.000000
				CHANNELS 3 Zrotation Xrotation Yrotation
				End Site
				{
					OFFSET     0.000000     0.000000    -0.017144
				}
			}

			JOINT joint14
			{

				OFFSET    -0.120063     0.114907     0.000000
				CHANNELS 3 Zrotation Xrotation Yrotation
				End Site
				{
					OFFSET     0.000000     0.000000    -0.016479
				}
			}

		}

	}

	JOINT RightHip
	{

		OFFSET    -0.109283    -0.057257     0.000987
		CHANNELS 3 Zrotation Xrotation Yrotation
		JOINT RightKnee
		{

			OFFSET     0.002149    -0.429339     0.038617
			CHANNELS 3 Zrotation Xrotation Yrotation
			JOINT RightAnkle
			{

				OFFSET    -0.001765    -0.522522    -0.077092
				CHANNELS 3 Zrotation Xrotation Yrotation
				JOINT r_ball
				{

					OFFSET    -0.000000    -0.037315     0.142913
					CHANNELS 3 Zrotation Xrotation Yrotation
					End Site
					{
						OFFSET     0.000000     0.000000     0.014648
					}
				}

			}

		}

	}

	JOINT LeftHip
	{

		OFFSET     0.098180    -0.056757     0.003895
		CHANNELS 3 Zrotation Xrotation Yrotation
		JOINT LeftKnee
		{

			OFFSET     0.007057    -0.430531     0.035812
			CHANNELS 3 Zrotation Xrotation Yrotation
			JOINT LeftAnkle
			{

				OFFSET    -0.005475    -0.521755    -0.078136
				CHANNELS 3 Zrotation Xrotation Yrotation
				JOINT lf_ball
				{

					OFFSET     0.000065    -0.036737     0.143337
					CHANNELS 3 Zrotation Xrotation Yrotation
					End Site
					{
						OFFSET     0.000000     0.000000     0.014648
					}
				}

			}

		}

	}

}

MOTION
Frames: 4
Frame Time: 0.033333
    1.561378     0.974648    -1.594219    -7.097781    -3.985313   128.043350     0.226991    -1.733614     0.668070     3.569407     2.829216     5.556925     0.000000     0.000000     0.000000     0.000000     0.000000     0.000000    -7.057425   -10.089672    -1.531444     0.000000     0.000000     0.000000    10.147268     1.280859     7.125696   -93.565170    23.206135     6.540583     0.534121     1.495955   -39.295792    11.935598     2.269020     6.063886     0.000000     0.000000     0.000000   -18.797667     1.752368    -5.137235    87.526886    26.723368   -10.783566    -0.843679     1.806924    50.054279    -9.374010    13.918844     0.715362     0.000000     0.000000     0.000000     0.000000     0.000000     0.000000     0.000000     0.000000     0.000000     9.872541   -18.299448   -10.404697     0.000000     5.676594     0.000000    -2.225068     2.567022    -4.158134     0.000000     0.000000     0.000000     2.898270   -38.586658    10.590699    -0.023015    65.173660     0.023015     7.298792     7.425805    18.255167     0.000000     0.000000     0.000000 
    1.592358     0.917336    -1.624255    -7.192317    -4.973946   127.931343     1.111148    -2.039706     0.320637     3.663263     3.063322     5.288362     0.000000     0.000000     0.000000     0.000000     0.000000     0.000000    -7.701588   -10.544793    -0.866686     0.000000     0.000000     0.000000    10.478361     1.285288     6.947160   -93.363396    22.520435     6.708402     0.523391     1.484816   -38.832897    13.254548     1.746669     7.488929     0.000000     0.000000     0.000000   -18.731133     2.084826    -6.134174    87.598930    23.405157    -9.389961    -0.836183     1.802955    49.759445   -10.661037    15.510099     2.143938     0.000000     0.000000     0.000000     0.000000     0.000000     0.000000     0.000000     0.000000     0.000000    10.803396   -22.866133    -9.953393     0.000000    13.830874     0.000000    -2.381393    -1.408937    -2.948229     0.000000     0.000000     0.000000     3.356120   -41.096008     9.494517    -0.015146    67.397598     0.010100     7.309410     7.073587    18.851044     0.000000     0.000000     0.000000 
    1.621989     0.890968    -1.653956    -7.289835    -5.400115   127.859322     1.571801    -2.214376     0.240279     3.553348     3.216062     5.194990     0.000000     0.000000     0.000000     0.000000     0.000000     0.000000    -7.958133   -10.868954    -0.638565     0.000000     0.000000     0.000000    11.183299     1.295741     6.540430   -92.388329    22.051083     6.653939     0.513811     1.473240   -38.451973    15.430656     1.179059     9.206290     0.000000     0.000000     0.000000   -18.860292     2.317720    -6.761917    86.979538    21.491817    -7.235054    -0.844007     1.806722    50.076263   -11.681494    16.496647     3.226950     0.000000     0.000000     0.000000     0.000000     0.000000     0.000000     0.000000     0.000000     0.000000    11.538579   -21.005827    -9.844155     0.000000    17.169462     0.000000    -7.583454   -15.543819    -4.681528     0.000000     0.000000     0.000000     3.619757   -43.917225     8.421408    -0.011305    69.378799     0.016334     7.323071     6.644027    19.271374     0.000000     0.000000     0.000000 
    1.650163     0.888253    -1.683250    -7.420425    -5.171106   127.839706     1.438602    -2.189232     0.594215     3.059912     3.284400     5.444790     0.000000     0.000000     0.000000     0.000000     0.000000     0.000000    -7.811059   -10.844824    -1.094719     0.000000     0.000000     0.000000    11.816871     1.331097     6.322165   -91.457283    21.446941     6.649337     0.514228     1.473152   -38.483013    16.810925     1.317439    10.139106     0.000000     0.000000     0.000000   -19.278929     2.422443    -6.889026    85.330978    21.168430    -3.802515    -0.884325     1.841958    51.288406   -12.346929    16.771374     3.875733     0.000000     0.000000     0.000000     0.000000     0.000000     0.000000     0.000000     0.000000     0.000000    10.853431   -19.251244   -10.212592     0.000000    19.182285     0.000000    -8.167783   -18.366985    -5.202503     0.000000     0.000000     0.000000     3.600526   -46.437611     7.601795    -0.012062    70.454018     0.017082     7.334785     6.186852    19.422190     0.000000     0.000000     0.000000 
